<svg width="463" height="397" viewBox="0 0 463 397" fill="none" xmlns="http://www.w3.org/2000/svg">
  <g clip-path="url(#clip0_268_10902)">
    <path d="M462.7 194.8a118.7 118.7 0 0 1-6 37.6l-.9 2.6-.8 2.1-.2.6-.9 2.1-.1.4-.9 2.1-.4.9-.9 1.8-1 1.9-.4.7-.9 1.6-.7 1.3-3.3 5.8-1.4 2.3a2 2 0 0 1-.4.6l-1.7 2.6-1.4 2.1-1.3 1.9-.3.4-1.3 1.9-1.7 2.3-.4.5-2 2.6-1.2 1.6-2.2 2.8a52.2 52.2 0 0 1-2.4 3l-2.2 2.6-.7.8-2 2.4-5.9 6.9a536 536 0 0 1-23.1 25.2 334.7 334.7 0 0 1-56.8 47.9c-2.5 1.6-5.1 3.3-7.7 4.8l-2.8 1.7-.5.3-2.9 1.6-3 1.6-1.4.7-6 3-3.3 1.5-3 1.4-1.2.5-2.8 1.2-5.5 2.1-2.1.8-1.2.4-2 .6-1.7.5h-.1l-3.4 1-5.4 1.5-3.6.9-3.4.7h-.3l-3.6.7-1.8.3-1.8.3-1.7.2-2 .3c-7.1.9-14.2 1.3-21.4 1.2H240c-6.5-.1-12.9-.6-19.4-1.4l-1.4-.2-2.4-.3-1.9-.3-8-1.4-1.8-.4-5.3-1.2-3.6-.9a12 12 0 0 1-1.8-.5 143 143 0 0 1-8.8-2.5l-8.1-2.6-2.9-1-9-3.4-1.6-.7-1.3-.6-.9-.4c-1.9-.9-4.1-1.9-6.3-3.1l-1.2-.6-4.3-2.3-10-5.7c-40-23.5-101.3-67.7-115.6-84.5l-2.2-2.6-1.6-2.1a23 23 0 0 1-1.4-1.9l-1.2-1.7-1.1-1.6-.1-.1-1.3-2-1.2-2-.6-.9-1.3-2.2-1.4-2.5a60.1 60.1 0 0 1-2.7-5.5 75 75 0 0 1-3.7-9.3l-1.1-3.3-1.2-4.3-.2-.9-.5-2.3-.6-3.2-.1-.8-.2-1.7-.2-2-.1-.7-.1-1.7v-.1l-.1-2v-.2l-.1-2.1v-2l.1-3.1.1-2A54.6 54.6 0 0 1 2 205.6a68 68 0 0 1 7.1-17.5l.3-.6c5.4-9.5 12.7-17.9 21-25.7l2.7-2.5 2.9-2.6.2-.2 4.7-4 7.5-6.1.2-.2 6.5-5.1a701.8 701.8 0 0 0 12.8-10l2.9-2.3a215.8 215.8 0 0 0 28-27.2l1.9-2.2c9.1-10.4 17.6-20.9 27.1-30.8 2.2-2.4 4.6-4.7 6.9-7a161.8 161.8 0 0 1 24.9-19.7l2.9-1.8c99.7-62 173.1-41.7 222.1 0a197 197 0 0 1 16.7 16l.6.7a159.3 159.3 0 0 1 5.1 5.7l1.7 2 2.1 2.4 1.3 1.6a346 346 0 0 1 9.3 12.3c3.4 4.8 6.6 9.6 9.5 14.5l1.2 2.1 1.2 2.1 1.2 2.1 1.2 2.1 1.1 2.1 1.1 2 1.1 2 1.1 2 1 2 1 2a275 275 0 0 1 3.7 7.8l1.7 3.9c2.5 5.7 4.6 11.2 6.4 16.3v.1l.5 1.4.5 1.5.4 1.1.5 1.7.5 1.8 1 3.4.8 2.9.1.5.1.4.4 1.7 1 4.5.5 2.4.1.5.4 2.3.5 3.1.3 2.4.1.4.2 1.6.2 1.3.5 4.8.1 1.1.1 1.8.1 2 .1 1.6.1 2.3c-.3.7-.3 1.5-.3 2.4Z" fill="#FF5269"/>
    <path d="M462.6 194.8a118.7 118.7 0 0 1-6 37.6l-.9 2.6-.8 2.1-.2.6-.9 2.1-.1.4-.9 2.1-.4.9-.9 1.8-1 1.9-.4.7-.9 1.6-.7 1.3-3.3 5.8-1.4 2.3-.4.6-1.7 2.6-1.4 2.1-1.3 1.9-.3.4-1.3 1.9-1.7 2.3-.4.5-2 2.6-1.2 1.6-2.2 2.8-2.2 2.7-.2.3-2.2 2.6-.7.8-2 2.4-5.9 6.9a571 571 0 0 1-23.1 25.2 334.7 334.7 0 0 1-56.8 47.9c-2.5 1.6-5.1 3.3-7.7 4.8l-2.8 1.7-.5.3-2.9 1.6-3 1.6-1.4.7-6 3-3.3 1.5-3 1.4-1.2.5-2.8 1.2-5.5 2.1-2.1.8-1.2.4-2 .6-1.7.5h-.1l-3.4 1-5.4 1.5-3.6.9-3.4.7h-.3l-3.6.7-1.8.3-1.8.3-1.7.2-2 .3c-7.1.9-14.2 1.3-21.4 1.2h-1.3c-6.5-.1-12.9-.6-19.4-1.4l-1.4-.2-2.4-.3-1.9-.3-8-1.4-1.8-.4-5.3-1.2-3.6-.9a12 12 0 0 1-1.8-.5 143 143 0 0 1-8.8-2.5l-8.1-2.6-2.9-1-9-3.4-1.6-.7-1.3-.6-.9-.4c-1.9-.9-4.1-1.9-6.3-3.1l-1.2-.6-4.3-2.3-10-5.7c-40-23.5-101.3-67.7-115.6-84.5l-2.2-2.6-1.6-2.1a23 23 0 0 1-1.4-1.9l-1.2-1.7-1.1-1.6-.1-.1-1.3-2-1.2-2-.6-.9-1.3-2.2-1.4-2.5-2.2-4.4-.5-1.1a75 75 0 0 1-3.7-9.3l-1.1-3.3-1.2-4.3-.2-.9-.5-2.3-.6-3.2-.1-.8-.2-1.7-.2-2-.1-.7-.1-1.7v-.1l-.1-2v-.2l-.1-2.1.1-5.2.1-2a54.6 54.6 0 0 1 1.7-10.1A68 68 0 0 1 9 188l.3-.6c5.4-9.5 12.7-17.9 21-25.7l1.4-1.3 1.3-1.1 2.9-2.6.2-.2 4.7-4 7.5-6.1.2-.2 6.5-5.1 3.3-2.5 6.9-5.3 2.6-2.1 2.9-2.3a215.8 215.8 0 0 0 28-27.2l1.9-2.2c9.1-10.4 17.6-20.9 27.1-30.8 2.2-2.4 4.6-4.7 6.9-7A161.8 161.8 0 0 1 159.5 42l2.9-1.8c99.7-62 173.1-41.7 222.1 0a197 197 0 0 1 16.7 16l.6.7a159.3 159.3 0 0 1 5.1 5.7l1.7 2 2.1 2.4 1.3 1.6a346 346 0 0 1 7.8 10.2l1.5 2.1c3.4 4.8 6.6 9.6 9.5 14.5l1.2 2.1 1.2 2.1 1.2 2.1 1.2 2.1 1.1 2.1 1.1 2 1.1 2 1.1 2 1 2 1 2a137.5 137.5 0 0 1 5.4 11.7c2.5 5.7 4.6 11.2 6.4 16.3v.1l.5 1.4.5 1.5.4 1.1.5 1.7.5 1.8 1 3.4.8 2.9.1.5.1.4.4 1.7 1 4.5.5 2.4.1.5.4 2.3.5 3.1.3 2.4.1.4.2 1.6.2 1.3.5 4.8.1 1.1.1 1.8.1 2 .1 1.6.1 2.3c-.3.6-.3 1.4-.3 2.3Z" fill="#fff" opacity=".7"/>
    <path d="M357.7 221.8H127v97.1h230.7v-97.1Z" fill="#FF5269" stroke="#344054" stroke-miterlimit="10" stroke-linecap="round" stroke-linejoin="round"/>
    <path d="M153.5 227.6h-21.7v12h21.7v-12ZM352.3 286.2h-34.2v12h34.2v-12ZM352.3 242.6h-21.1v12h21.1v-12ZM153.5 271.4h-21.7v12h21.7v-12ZM149.4 256.9h-17.6v12h17.6v-12ZM143.8 242.3h-12v12h12v-12ZM159.1 242.3h-12v12h12v-12ZM174.5 242.3h-12v12h12v-12ZM189.8 242.3h-12v12h12v-12ZM205.1 242.3h-12v12h12v-12ZM220.5 242.3h-12v12h12v-12ZM235.8 242.3h-12v12h12v-12ZM251.1 242.3h-12v12h12v-12ZM266.5 242.3h-12v12h12v-12ZM281.8 242.3h-12v12h12v-12ZM297.1 242.3h-12v12h12v-12ZM312.5 242.3h-12v12h12v-12ZM327.8 242.3h-12v12h12v-12ZM143.8 301h-12v12h12v-12ZM159.1 301h-12v12h12v-12ZM174.5 301h-12v12h12v-12ZM192.5 301h-14.7v12h14.7v-12ZM269.1 301h-73.3v12h73.3v-12ZM305.8 301h-12v12h12v-12ZM321.1 301h-12v12h12v-12ZM336.5 301h-12v12h12v-12ZM290.8 301h-18.7v12h18.7v-12ZM352.3 301h-12v12h12v-12ZM164.8 256.9h-12v12h12v-12ZM180.1 256.9h-12v12h12v-12ZM195.4 256.9h-12v12h12v-12ZM210.8 256.9h-12v12h12v-12ZM226.1 256.9h-12v12h12v-12ZM241.4 256.9h-12v12h12v-12ZM256.8 256.9h-12v12h12v-12ZM272.1 256.9h-12v12h12v-12ZM287.4 256.9h-12v12h12v-12ZM302.8 256.9h-12v12h12v-12ZM318.1 256.9h-12v12h12v-12ZM333.5 256.9h-12v12h12v-12ZM352.3 256.9v26.7h-12v-14.7h-3.5v-12h15.5ZM168.3 271.6h-12v12h12v-12ZM183.6 271.6h-12v12h12v-12ZM199 271.6h-12v12h12v-12ZM214.3 271.6h-12v12h12v-12ZM229.6 271.6h-12v12h12v-12ZM245 271.6h-12v12h12v-12ZM260.3 271.6h-12v12h12v-12ZM275.6 271.6h-12v12h12v-12ZM291 271.6h-12v12h12v-12ZM306.3 271.6h-12v12h12v-12ZM321.6 271.6h-12v12h12v-12ZM337 271.6h-12v12h12v-12ZM161.8 286.2h-12v12h12v-12ZM177.1 286.2h-12v12h12v-12ZM192.4 286.2h-12v12h12v-12ZM207.8 286.2h-12v12h12v-12ZM223.1 286.2h-12v12h12v-12ZM238.4 286.2h-12v12h12v-12ZM253.8 286.2h-12v12h12v-12ZM269.1 286.2h-12v12h12v-12ZM284.4 286.2h-12v12h12v-12ZM299.8 286.2h-12v12h12v-12ZM315.1 286.2h-12v12h12v-12ZM168.3 228.4h-12v12h12v-12ZM183.6 228.4h-12v12h12v-12ZM199 228.4h-12v12h12v-12ZM214.3 228.4h-12v12h12v-12ZM229.6 228.4h-12v12h12v-12ZM245 228.4h-12v12h12v-12ZM260.3 228.4h-12v12h12v-12ZM275.6 228.4h-12v12h12v-12ZM291 228.4h-12v12h12v-12ZM306.3 228.4h-12v12h12v-12ZM321.6 228.4h-12v12h12v-12ZM337 228.4h-12v12h12v-12ZM352.3 228.4h-12v12h12v-12ZM146.4 286.2h-14.6v12h14.6v-12Z" fill="#fff" stroke="#344054" stroke-miterlimit="10"/>
    <path d="m127 222.4 4.8-1.6h222.7l3.2 1.6H127Z" fill="#344054"/>
    <path opacity=".2" d="m291.6 389-4.7-28.2c-1-4.2-3.2-8-6.4-11.1-9.3-9-21.7-18.2-22.2-30-.8-18-3.6-17.5-3.3-21.9 0-.2 1.4-2.1 3.2-6.6.6-1.4 1-3.6 1.4-5.3a3.6 3.6 0 0 1 4-2.8 6 6 0 0 1 3.4 1.6 9.1 9.1 0 0 1 2.5 6.5c.1 2.4-.5 4.7-1 7.1a44 44 0 0 1 3 12.4l3-9.9c.2-.1.1-.4.4-.5-1.5-3.2-.2-3.1-3.2-10.2-5-12-10.6-23.6-14.6-38.6-.3-1.2-.3-3.1.1-4.2 1.4-4.3 5.9-3.3 7.8-.8.5.7.9 1.4 1.2 2.2 2 5.4 6.4 13.6 9.6 18.4l10.9 16.6s3.8-3.1 4.4-4.5c.6-1.4.9-12.7.9-12.7s-.9 2.1-2.8 2c-1.4-.1-4.2.7-6.2-1.5a5.3 5.3 0 0 1-.2-6.5l4.9-6.7s3.3-2.9 7.7-.9 8.7 6.1 8.7 6.1 4.1-.2 7.6 1.5 7.1 6.5 7.1 6.5 4.1.2 5.9 1.6c.5.3 6.7 10 4.4 17.5-1.3 4.5-2.2 11-2.8 12.8l-3.1 44.1 6.1 29-13.1 7.3a93 93 0 0 1-15.1 6.8l-9.5 2.9Z" fill="#232B37"/>
    <path d="m329 337.5.1-44.2c.5-1.8.9-8.3 1.9-12.9 1.7-7.7-5.1-16.9-5.6-17.2-1.9-1.2-6-1.2-6-1.2s-4-4.6-7.6-6c-3.6-1.4-7.7-1-7.7-1s-4.5-3.8-9.1-5.5c-4.5-1.7-7.7 1.4-7.7 1.4l-4.5 7a5.3 5.3 0 0 0 .6 6.5c2.1 2.1 4.9 1.1 6.3 1.1 1.9 0 2.6-2.2 2.6-2.2s.5 11.3 0 12.7c-.5 1.4-4.1 4.8-4.1 4.8l-12-15.8c-3.5-4.6-8.4-12.6-10.8-17.8-.4-.8-.8-1.5-1.3-2.1-2.1-2.4-6.6-3.1-7.8 1.3-.3 1.2-.2 3.1.2 4.2 5 14.8 11.4 25.9 17.2 37.6 3.5 6.9 2.2 6.8 3.9 10-.2.1-.1.4-.3.5-.8 3.4-1.4 6.7-2.3 10.1a48 48 0 0 0-3.8-12.2c.4-2.4.8-4.7.5-7.1a8.8 8.8 0 0 0-3-6.3 6 6 0 0 0-3.5-1.4 3.5 3.5 0 0 0-3.8 3.1c-.3 1.8-.5 3.9-1 5.4-1.5 4.6-2.8 6.6-2.8 6.8 0 4.5 2.8 3.7 4.8 21.7 1.6 14 19.6 23.2 29.4 33.3l10.4 32.9a211.3 211.3 0 0 0 34.9-18.3l-8.1-29.2Z" fill="#fff"/>
    <path d="M323.8 277.4a8.2 8.2 0 0 1 2.3-3.5c1.1-.9 2.9-.9 3.8.1-.7-2.3-1.5-4.6-2.4-6.8-.6-1.7-1.4-3.5-2.8-4.7-1.4-1.2-3.8-1.4-5 0 .9 5.2 1 10.6.3 15.8-.4 2.8-.8 6.1 1.1 8.2.5.4 1.4-.3 1.1-.9-.2-.3-.7-.3-1-.3a81 81 0 0 1 2.6-7.9Z" fill="#FF5269"/>
    <path d="M323.8 277.4a8.2 8.2 0 0 1 2.3-3.5c1.1-.9 2.9-.9 3.8.1-.7-2.3-1.5-4.6-2.4-6.8-.6-1.7-1.4-3.5-2.8-4.7-1.4-1.2-3.8-1.4-5 0 .9 5.2 1 10.6.3 15.8-.4 2.8-.8 6.1 1.1 8.2.5.4 1.4-.3 1.1-.9-.2-.3-.7-.3-1-.3a81 81 0 0 1 2.6-7.9Z" fill="#FF5269"/>
    <path opacity=".5" d="M323.8 277.4a8.2 8.2 0 0 1 2.3-3.5c1.1-.9 2.9-.9 3.8.1-.7-2.3-1.5-4.6-2.4-6.8-.6-1.7-1.4-3.5-2.8-4.7-1.4-1.2-3.8-1.4-5 0 .9 5.2 1 10.6.3 15.8-.4 2.8-.8 6.1 1.1 8.2.5.4 1.4-.3 1.1-.9-.2-.3-.7-.3-1-.3a81 81 0 0 1 2.6-7.9Z" fill="#fff"/>
    <path d="M307.9 272.7c.1 1.9.1 3.9.5 5.7.5 1.9 1.5 3.7 3.2 4.6-1-3.7-.5-7.7.1-11.5l1-7c.1-.8.2-1.6.7-2.3.5-.7 1.4-1.1 2.1-.8-1 .6-2.3-.2-2.9-1.2-.6-1-.8-2.2-1.5-3.1-1.3-1.7-4.2-2.1-6.2-1.6.6 5.8 2.8 11.3 3 17.2Z" fill="#FF5269"/>
    <path d="M307.9 272.7c.1 1.9.1 3.9.5 5.7.5 1.9 1.5 3.7 3.2 4.6-1-3.7-.5-7.7.1-11.5l1-7c.1-.8.2-1.6.7-2.3.5-.7 1.4-1.1 2.1-.8-1 .6-2.3-.2-2.9-1.2-.6-1-.8-2.2-1.5-3.1-1.3-1.7-4.2-2.1-6.2-1.6.6 5.8 2.8 11.3 3 17.2Z" fill="#FF5269"/>
    <path d="M307.9 272.7c.1 1.9.1 3.9.5 5.7.5 1.9 1.5 3.7 3.2 4.6-1-3.7-.5-7.7.1-11.5l1-7c.1-.8.2-1.6.7-2.3.5-.7 1.4-1.1 2.1-.8-1 .6-2.3-.2-2.9-1.2-.6-1-.8-2.2-1.5-3.1-1.3-1.7-4.2-2.1-6.2-1.6.6 5.8 2.8 11.3 3 17.2Z" fill="#fff" opacity=".5"/>
    <path d="M291.6 257.3c-.6-.5-.9-1.3-1.1-2.1-.2-.8-.5-1.6-1.2-2-3.1 1.9-1.4 7.7-4.5 9.6-.6.4-1.4.6-1.7 1.2-.3.6-.1 1.3.3 1.8s1.1.7 1.7.8c2.5.4 5.1-.8 6.5-2.8 1.2-1.7 2.1-4.4 1.5-6.4-.4.1-1.1.2-1.5-.1ZM259.6 294.6c-.1.2-.1.5.1.6.3.2.6-.1.8-.4a5.3 5.3 0 0 1 6-1.9c.8 0 1.1-1.2.6-1.9-.5-.6-1.4-.7-2.2-.7-.8 0-1.7 0-2.4-.4a2.4 2.4 0 0 1-1-2.5l-1.9 7.2Z" fill="#FF5269"/>
    <g opacity=".5" fill="#fff">
      <path d="M291.6 257.3c-.6-.5-.9-1.3-1.1-2.1-.2-.8-.5-1.6-1.2-2-3.1 1.9-1.4 7.7-4.5 9.6-.6.4-1.4.6-1.7 1.2-.3.6-.1 1.3.3 1.8s1.1.7 1.7.8c2.5.4 5.1-.8 6.5-2.8 1.2-1.7 2.1-4.4 1.5-6.4-.4.1-1.1.2-1.5-.1ZM259.6 294.6c-.1.2-.1.5.1.6.3.2.6-.1.8-.4a5.3 5.3 0 0 1 6-1.9c.8 0 1.1-1.2.6-1.9-.5-.6-1.4-.7-2.2-.7-.8 0-1.7 0-2.4-.4a2.4 2.4 0 0 1-1-2.5l-1.9 7.2Z"/>
    </g>
    <path d="M300.4 256.5c-1.7-.2-3.6-.3-5.1-1.2-1.9-1.1-3.2-3.5-5.4-3.6-2-.1-3.4 1.7-4.5 3.3-.1-2.4 1.7-4.7 3.9-5.6a10 10 0 0 1 7.2.3 25 25 0 0 1 8.3 5.9c2.3 3.9-2.9 1.1-4.4.9Z" fill="#FF5269"/>
    <path opacity=".5" d="M300.4 256.5c-1.7-.2-3.6-.3-5.1-1.2-1.9-1.1-3.2-3.5-5.4-3.6-2-.1-3.4 1.7-4.5 3.3-.1-2.4 1.7-4.7 3.9-5.6a10 10 0 0 1 7.2.3 25 25 0 0 1 8.3 5.9c2.3 3.9-2.9 1.1-4.4.9Z" fill="#fff"/>
    <path d="m269.1 313.3.3-.7a1 1 0 0 0-.3.7Z" fill="#FF5269"/>
    <path d="M272 297.8c-.2-2.5.2-4.9.1-7.4s-.7-5.1-2.5-6.8c-2.6-2.4-9.6-1.2-7.3 3.4a3.1 3.1 0 0 0 3.7 1.4c1.3-.6 2-2.4 1.2-3.6a12.8 12.8 0 0 1-.6 14.6c3.7 3.2 4.8 8.9 2.8 13.3.4-.3 1.2-.4 1.6 0 .7.5.9 1.5 1.3 2.3.3.8 1 1.6 1.9 1.6 1.2-2.9.8-6.3 0-9.4-.8-3.2-1.9-6.2-2.2-9.4ZM297.9 251.4a9.4 9.4 0 0 0-4.7-2l4.7 2ZM309.7 282.7c-.4-1.7-1.2-3.3-1.6-5-1.1-3.9-.4-8.1-.9-12.1a21.3 21.3 0 0 0-7.4-13.5l-1.8-.8c1.7 1.3 3 3.2 3.6 5.2 1.4 4.8 1.8 9.8 2.4 14.7a173 173 0 0 0 4.2 22.6c1.1-3.5 2.3-7.3 1.5-11.1ZM290.6 264.9c1.2-1 1.9-2.5 2.1-4.1.2-1.4.1-2.8-.1-4.2-.1.6-.9 1.1-1.6.9-.9-.2-1.4-1-1.9-1.7l-.4 1.3-.1-.7-.5.6c.7 2 1.4 4.3.3 6.2-.5.9-1.4 1.5-2.3 2.1 1.4.9 3.3.6 4.5-.4ZM292.6 256.1l.1.5-.1-.5ZM287.4 276.3a402 402 0 0 0-10.9-20.5 71.2 71.2 0 0 0-7.6-11.2c-1.3-1.5-5.2-5-7.3-2.7-1.4 1.5.4 4.3-1.3 5.9.4 0 2.4-.2 2.6.1a30.3 30.3 0 0 1 6.7 19.4c1.4-1.1 3.3.4 4.4 1.8 6.8 8.7 13.1 17.8 19 27.1-1.1-4.1-1.2-8.5-2.4-12.6-.8-2.4-2-4.9-3.2-7.3Z" fill="#FF5269"/>
    <path d="M328.1 293.1c1.7-4.5 3-9.1 3.1-13.8.1-4.3-.9-8.8-3.1-12.5-.6-.9-3-4.8-4.3-4.5-2.3.6.7 4.6 1.3 5.7a26 26 0 0 1 4 12.3c-.1 3.4-1.5 6.5-2.6 9.7-.8 2.2-1.4 4.6-1.4 6.9l-.5.8c-1.6 2-3.7 3.7-6.3 4.1l2.9-9c.3-1.1.5-2.5-.1-3.3.2-.4.3-.8.3-1.3 0-.8-.5-1.6-.8-2.3-1.3-2.9-.9-6.2-.6-9.4.4-3.9.6-7.9-.6-11.7a12.8 12.8 0 0 0-7.5-8.5l1 1-1.3-.9 2.3 4.9-.9 1.2c1.3-.7 2.9.3 3.5 1.6.6 1.3.4 2.9.3 4.3-.8 8.1-.4 16.3 1.2 24.3a12 12 0 0 1-1.4 5.3c-1 1.7-3 3-5 2.7.4-1.9-.3-4.2-1.9-5.3-2 2.8-.8 7.1-.5 10.3.5 4.8 1.2 9.6 2.3 14.4.3-4.1 1.2-8.2 2.6-12l3.3 11.8c0-1.1.1-2.3.6-3.2.5-1 1.7-1.7 2.8-1.3.8.3 1.3 1.2 1.7 2.1a37.1 37.1 0 0 1 2 21.6c1.3.7 3.1-.2 3.9-1.5.7-1.3.7-3 .7-4.5-.5-13.3-.8-26.6-1-40ZM294.2 297.4c-.6 1.1 2 5.6 2.4 6.6l6.6 16.1a77.5 77.5 0 0 0-5.1-20.7c-.5-1-2.6-4.3-3.9-2ZM297.6 268.8c-.4.6-.9 1.3-1.6 1.1-.6-.2-.7-1-.7-1.6l.2-11.2c-3 2.2-2.6 5-2.8 8.2-.1 1.9.4 10.8-.9 11.9 3-2.5 5.5-5.6 7.4-9.1-.5-.4-1.2.2-1.6.7Z" fill="#FF5269"/>
    <g opacity=".5" fill="#fff">
      <path d="m269.1 313.3.3-.7a1 1 0 0 0-.3.7Z"/>
      <path d="M272 297.8c-.2-2.5.2-4.9.1-7.4s-.7-5.1-2.5-6.8c-2.6-2.4-9.6-1.2-7.3 3.4a3.1 3.1 0 0 0 3.7 1.4c1.3-.6 2-2.4 1.2-3.6a12.8 12.8 0 0 1-.6 14.6c3.7 3.2 4.8 8.9 2.8 13.3.4-.3 1.2-.4 1.6 0 .7.5.9 1.5 1.3 2.3.3.8 1 1.6 1.9 1.6 1.2-2.9.8-6.3 0-9.4-.8-3.2-1.9-6.2-2.2-9.4ZM297.9 251.4a9.4 9.4 0 0 0-4.7-2l4.7 2ZM309.7 282.7c-.4-1.7-1.2-3.3-1.6-5-1.1-3.9-.4-8.1-.9-12.1a21.3 21.3 0 0 0-7.4-13.5l-1.8-.8c1.7 1.3 3 3.2 3.6 5.2 1.4 4.8 1.8 9.8 2.4 14.7a173 173 0 0 0 4.2 22.6c1.1-3.5 2.3-7.3 1.5-11.1ZM290.6 264.9c1.2-1 1.9-2.5 2.1-4.1.2-1.4.1-2.8-.1-4.2-.1.6-.9 1.1-1.6.9-.9-.2-1.4-1-1.9-1.7l-.4 1.3-.1-.7-.5.6c.7 2 1.4 4.3.3 6.2-.5.9-1.4 1.5-2.3 2.1 1.4.9 3.3.6 4.5-.4ZM292.6 256.1l.1.5-.1-.5ZM287.4 276.3a402 402 0 0 0-10.9-20.5 71.2 71.2 0 0 0-7.6-11.2c-1.3-1.5-5.2-5-7.3-2.7-1.4 1.5.4 4.3-1.3 5.9.4 0 2.4-.2 2.6.1a30.3 30.3 0 0 1 6.7 19.4c1.4-1.1 3.3.4 4.4 1.8 6.8 8.7 13.1 17.8 19 27.1-1.1-4.1-1.2-8.5-2.4-12.6-.8-2.4-2-4.9-3.2-7.3Z"/>
      <path d="M328.1 293.1c1.7-4.5 3-9.1 3.1-13.8.1-4.3-.9-8.8-3.1-12.5-.6-.9-3-4.8-4.3-4.5-2.3.6.7 4.6 1.3 5.7a26 26 0 0 1 4 12.3c-.1 3.4-1.5 6.5-2.6 9.7-.8 2.2-1.4 4.6-1.4 6.9l-.5.8c-1.6 2-3.7 3.7-6.3 4.1l2.9-9c.3-1.1.5-2.5-.1-3.3.2-.4.3-.8.3-1.3 0-.8-.5-1.6-.8-2.3-1.3-2.9-.9-6.2-.6-9.4.4-3.9.6-7.9-.6-11.7a12.8 12.8 0 0 0-7.5-8.5l1 1-1.3-.9 2.3 4.9-.9 1.2c1.3-.7 2.9.3 3.5 1.6.6 1.3.4 2.9.3 4.3-.8 8.1-.4 16.3 1.2 24.3a12 12 0 0 1-1.4 5.3c-1 1.7-3 3-5 2.7.4-1.9-.3-4.2-1.9-5.3-2 2.8-.8 7.1-.5 10.3.5 4.8 1.2 9.6 2.3 14.4.3-4.1 1.2-8.2 2.6-12l3.3 11.8c0-1.1.1-2.3.6-3.2.5-1 1.7-1.7 2.8-1.3.8.3 1.3 1.2 1.7 2.1a37.1 37.1 0 0 1 2 21.6c1.3.7 3.1-.2 3.9-1.5.7-1.3.7-3 .7-4.5-.5-13.3-.8-26.6-1-40ZM294.2 297.4c-.6 1.1 2 5.6 2.4 6.6l6.6 16.1a77.5 77.5 0 0 0-5.1-20.7c-.5-1-2.6-4.3-3.9-2ZM297.6 268.8c-.4.6-.9 1.3-1.6 1.1-.6-.2-.7-1-.7-1.6l.2-11.2c-3 2.2-2.6 5-2.8 8.2-.1 1.9.4 10.8-.9 11.9 3-2.5 5.5-5.6 7.4-9.1-.5-.4-1.2.2-1.6.7Z"/>
    </g>
    <path d="M260.9 294.1c-1.2.9-2.2 2-2.9 3.3l2.9-3.3Z" fill="#fff"/>
    <path d="M302.4 385.1 292 352.2c-9.8-10.1-27.8-19.3-29.4-33.3-2-17.9-4.8-17.2-4.8-21.7 0-.2 1.3-2.2 2.8-6.8.5-1.5.7-3.6 1-5.4.3-1.9 1.9-3.3 3.8-3.1 1.3.1 2.5.6 3.5 1.4a9.6 9.6 0 0 1 3 6.3 28 28 0 0 1-.5 7.1c1.9 3.6 3 8.1 3.8 12.2.8-3.4 1.4-6.7 2.3-10.1.2-.1.1-.4.3-.5-1.7-3.1-.4-3-3.9-10-5.8-11.6-12.2-22.8-17.2-37.6a8.6 8.6 0 0 1-.2-4.2c1.2-4.4 5.7-3.7 7.8-1.3.6.6 1 1.3 1.3 2.1 2.4 5.2 7.3 13.2 10.8 17.8l12 15.8s3.6-3.3 4.1-4.8c.5-1.4 0-12.7 0-12.7s-.7 2.2-2.6 2.2c-1.4 0-4.1 1-6.3-1.1a5.3 5.3 0 0 1-.6-6.5l4.5-7s3.1-3.1 7.7-1.4c4.5 1.7 9.1 5.5 9.1 5.5s4.1-.5 7.7 1c3.6 1.4 7.6 6 7.6 6s4.1 0 6 1.2c.5.3 7.3 9.5 5.6 17.2-1 4.6-1.4 11.1-1.9 12.9l-.1 44.2 8.3 29.3" stroke="#344054" stroke-miterlimit="10"/>
    <path d="M305.3 256.6a75.3 75.3 0 0 1 2.7 20c0 1.1 0 2.3.4 3.4s1.2 2.1 2.3 2.3M319.4 263.2c3 6.3-.1 20.2.2 21.2.2 1 .8 1.9 1.7 2.4M293.6 255.7l-1 6.3c-2.3-2-3.8-4.9-4-8M274.5 309.1l-2.2 1M275 310.8a11 11 0 0 0 0 5.1M287.7 292.1l2.4 4.3M292.3 276.4l2.4-3.4M325.7 292.1l-.7 2.6M319.9 284.9l2.1-6.7M326.9 273c1.2-.7 3-.2 3.6 1.1M312.6 261.5c1.7-.5 3.5 0 4.8 1.1M268 268.2a7.2 7.2 0 0 1 6.2-2.3M259 249.3c1.4-1 3.3-1.5 5-1.2M260.9 294.1c-1.2.9-2.2 2-2.9 3.3M261.8 289.5c1.6-1.1 4.1 1.4 5.6.1.6-.5.6-1.4.5-2.2-.1-.8-.4-1.5-.3-2.3M306.4 282.6c1.9 3.9 2.3 8.6 1.1 12.8M318 288.8a8 8 0 0 1-1 5.5" stroke="#344054" stroke-miterlimit="10"/>
    <path opacity=".2" d="M221.4 303.8a5 5 0 0 1-.1 2.1 278 278 0 0 0-3.2 16.6c-.8 5.9-10.3 24-10.3 24L194.6 363a118 118 0 0 0-8.6 24.7 202 202 0 0 1-11-3.6l-9-3.4c-4.2-1.6-9.5-4.3-15.6-7.6 1.7-6 2.8-10.7 2.8-10.9-.1-.6 3.6-7.6 3.6-7.6l-3.1-41.4-1.9-6.3a46.5 46.5 0 0 1-.5-25.3l5.4-8.1 2.5-.2 7.9-11s4.2-1.3 5.3 1.9c1.1 3.2-3.5 9.2-3.5 9.2l-1.6 9.9 3.8 9.2 2 .7s.7-16.3.2-19.5l4.2-14.8s2.5-5 3.3-7.5c.8-2.5 5.2-5 7.8-.6 0 0 1.4 2.2.4 5.3l-1.9 5.4s-.9 12.6-1.2 12.9c-.3.3 1.8 18.7 1.8 18.7l1.6.7.6-17.6 3.4-16.5s-.3-7.9 5.3-7c0 0 2.6-.3 4.1 2.6 1.5 2.9.1 21.8.1 21.8l1.4 19.6 2.2 15.1 2.6-10.4s.1-14.9 9.5-16.1c0 0 2.8-.5 3.4 1.4.6 1.9-1.4 5.9-1.1 9.7 0 2.8.4 5.8.6 7.4Z" fill="#232B37"/>
    <path d="M218.5 285.4c-.4-2-3.2-1.7-3.2-1.7-9.4.6-10.7 15.4-10.7 15.4l-3.4 10.1-1.1-15.3.1-19.7s2.9-18.8 1.6-21.8c-1.3-3-3.9-2.9-3.9-2.9-5.5-1.4-5.8 6.5-5.8 6.5l-4.6 16.2-1.9 17.5-1.6-.8s-.7-18.5-.4-18.8c.3-.3 2.2-12.8 2.2-12.8l2.3-5.3c1.3-3 0-5.3 0-5.3-2.2-4.5-6.9-2.4-7.8 0-1 2.4-3.8 7.2-3.8 7.2l-5.3 14.5c.2 3.3-1.7 19.5-1.7 19.5l-1.9-.9-3.1-9.5 2.3-9.7s5.1-5.6 4.2-8.9c-.8-3.3-5.2-2.3-5.2-2.3l-8.7 10.4h-2.5l-6 7.6a49 49 0 0 0-1.4 25.3l1.4 6.4v41.6s-4.1 6.7-4.1 7.3c0 .3-1.7 5.5-4.1 12.1a208.9 208.9 0 0 0 25.6 13.3l9 3.4c3.8-10.7 8.2-22.1 10.7-24.8l14.4-15.4s10.8-17.4 12.1-23.1c1-4.7 3.6-13.3 4.5-16.3a5 5 0 0 0 .2-2.1 135 135 0 0 1-.2-7.3c0-3.8 2.2-7.6 1.8-9.6Z" fill="#fff"/>
    <path d="M153.6 281.2c1.6-2 4.9-2.8 6.8-1 1.1 1 1.4 2.6 1.7 4 .3 1.5.5 3 1.5 4.1 1 1.1 2.9 1.6 3.9.5l.4 6.6c2.3-4.1 3.5-8.8 3.4-13.4 0-2.3-.4-4.6.1-6.8s2.2-4.4 4.5-4.5c2.5-.1 4.5 2.3 5 4.8s-.1 5-.2 7.5a23 23 0 0 0 2.2 11.2l1.6-3.2 1.4 6.5 1.2-14.2c.1-1.3.2-2.7.9-3.9.6-1.2 1.9-2.2 3.2-2 1.8.2 2.8 2.1 3.4 3.8 4.5 12.7 2.6 26.7.7 40.1 1.3.2 2.3-1 2.6-2.3.3-1.2.2-2.6.7-3.7.5-1.2 1.9-2.2 3-1.5 1.6 1 .5 4.1 2.1 4.9.5-4 2.1-7.8 4.5-10.9 1.1-1.4 2.8-2.9 4.5-2.4 1.3.3 2.2 1.7 2.4 3 .2 1.3 2.1-4.2 1.8-2.9.8-7.7-.8-8.5 0-16.2.1-1.4 2.4-3.8 1.4-4.8-.9-1-3.6-2.4-4.8-1.8-1.2.6-5.1 2.5-5.9 3.6-4.9 6.8-4.6 16.6-6.1 24.8a132.3 132.3 0 0 1-.3-37.7c1.3-6.8 3.6-14 1.4-20.6-1-3-3.7-6-6.8-5.5-2.5.5-4 3-5.1 5.4-3.4 7.9-5 16.5-6.5 25l5.6-25.6c.5-2.2 1-4.5.6-6.7s-1.9-4.4-4.2-4.9c-2.2-.5-4.4.8-6.1 2.4-5.9 5.4-8.2 13.7-10.1 21.6.7-2 1.4-4.2 1.2-6.3-.2-2.1-1.6-4.3-3.7-4.8-2.7-.6-5.2 1.8-6.4 4.4-1.2 2.5-1.8 5.4-3.7 7.4-1.4-1.6-4-1.5-5.7-.3a11.3 11.3 0 0 0-3.6 5c-3.1 7-4.5 14.8-3.9 22.5a8.2 8.2 0 0 1 8.2-4.7l-.6-5.1" fill="#FF5269"/>
    <path d="m160.2 297.5-.3 3.8c.4-1.1 1.9-1.4 2.8-.7-.2-.8.3-1.6.6-2.3.3-.8.4-1.8-.4-2.2-.9-.4-1.7.6-2.2 1.4l-.1-.9-.4.9ZM174.5 295.2a9.1 9.1 0 0 0-2 4.2c.4-.4.9-.9 1.5-1.1.6-.2 1.3-.1 1.7.4.2.3.3.7.6.9.3.2.8 0 1-.4.2-.3.2-.7.3-1.1 0-.7.1-1.5-.1-2.2-.2-.7-.7-1.4-1.4-1.5-.7-.2-1.6.4-1.6 1.1v-.3ZM188.4 298.7a11.6 11.6 0 0 0-2.1 5c.7-.1 1.4-.6 1.9-1 .6-.5 1.2-.9 2-1 .7-.1 1.6.5 1.6 1.2-.1-.8 0-1.7.1-2.5s.1-1.7-.2-2.5c-.3-.8-1.1-1.5-1.9-1.4-.8 0-1.6 1-1.2 1.8l-.2.4ZM150.2 303.7a9.7 9.7 0 0 0-1.2 4.7c0-.8.7-1.4 1.5-1.5.7-.1 1.5.2 2.1.6.1-.8.3-1.5.1-2.3-.2-.8-.7-1.5-1.5-1.6-.8-.1-1.6.6-1.4 1.4l-.2-.6.6-.7Z" fill="#FF5269"/>
    <path opacity=".5" d="M153.6 281.2c1.6-2 4.9-2.8 6.8-1 1.1 1 1.4 2.6 1.7 4 .3 1.5.5 3 1.5 4.1 1 1.1 2.9 1.6 3.9.5l.4 6.6c2.3-4.1 3.5-8.8 3.4-13.4 0-2.3-.4-4.6.1-6.8s2.2-4.4 4.5-4.5c2.5-.1 4.5 2.3 5 4.8s-.1 5-.2 7.5a23 23 0 0 0 2.2 11.2l1.6-3.2 1.4 6.5 1.2-14.2c.1-1.3.2-2.7.9-3.9.6-1.2 1.9-2.2 3.2-2 1.8.2 2.8 2.1 3.4 3.8 4.5 12.7 2.6 26.7.7 40.1 1.3.2 2.3-1 2.6-2.3.3-1.2.2-2.6.7-3.7.5-1.2 1.9-2.2 3-1.5 1.6 1 .5 4.1 2.1 4.9.5-4 2.1-7.8 4.5-10.9 1.1-1.4 2.8-2.9 4.5-2.4 1.3.3 2.2 1.7 2.4 3 .2 1.3 2.1-4.2 1.8-2.9.8-7.7-.8-8.5 0-16.2.1-1.4 2.4-3.8 1.4-4.8-.9-1-3.6-2.4-4.8-1.8-1.2.6-5.1 2.5-5.9 3.6-4.9 6.8-4.6 16.6-6.1 24.8a132.3 132.3 0 0 1-.3-37.7c1.3-6.8 3.6-14 1.4-20.6-1-3-3.7-6-6.8-5.5-2.5.5-4 3-5.1 5.4-3.4 7.9-5 16.5-6.5 25l5.6-25.6c.5-2.2 1-4.5.6-6.7s-1.9-4.4-4.2-4.9c-2.2-.5-4.4.8-6.1 2.4-5.9 5.4-8.2 13.7-10.1 21.6.7-2 1.4-4.2 1.2-6.3-.2-2.1-1.6-4.3-3.7-4.8-2.7-.6-5.2 1.8-6.4 4.4-1.2 2.5-1.8 5.4-3.7 7.4-1.4-1.6-4-1.5-5.7-.3a11.3 11.3 0 0 0-3.6 5c-3.1 7-4.5 14.8-3.9 22.5a8.2 8.2 0 0 1 8.2-4.7l-.6-5.1" fill="#fff"/>
    <g opacity=".5" fill="#fff">
      <path d="m160.2 297.5-.3 3.8c.4-1.1 1.9-1.4 2.8-.7-.2-.8.3-1.6.6-2.3.3-.8.4-1.8-.4-2.2-.9-.4-1.7.6-2.2 1.4l-.1-.9-.4.9ZM174.5 295.2a9.1 9.1 0 0 0-2 4.2c.4-.4.9-.9 1.5-1.1.6-.2 1.3-.1 1.7.4.2.3.3.7.6.9.3.2.8 0 1-.4.2-.3.2-.7.3-1.1 0-.7.1-1.5-.1-2.2-.2-.7-.7-1.4-1.4-1.5-.7-.2-1.6.4-1.6 1.1v-.3ZM188.4 298.7a11.6 11.6 0 0 0-2.1 5c.7-.1 1.4-.6 1.9-1 .6-.5 1.2-.9 2-1 .7-.1 1.6.5 1.6 1.2-.1-.8 0-1.7.1-2.5s.1-1.7-.2-2.5c-.3-.8-1.1-1.5-1.9-1.4-.8 0-1.6 1-1.2 1.8l-.2.4ZM150.2 303.7a9.7 9.7 0 0 0-1.2 4.7c0-.8.7-1.4 1.5-1.5.7-.1 1.5.2 2.1.6.1-.8.3-1.5.1-2.3-.2-.8-.7-1.5-1.5-1.6-.8-.1-1.6.6-1.4 1.4l-.2-.6.6-.7Z"/>
    </g>
    <path d="M140.4 367.3c2.4-6.5 4.1-11.8 4.1-12.1 0-.6 4.1-7.3 4.1-7.3v-41.6l-1.4-6.4a48.8 48.8 0 0 1 1.4-25.3l6-7.6h2.5l8.7-10.4s4.3-1 5.2 2.3c.8 3.3-4.2 8.9-4.2 8.9l-2.3 9.7 3.1 9.5 1.9.9s1.9-16.2 1.7-19.5l5.3-14.5s2.9-4.8 3.8-7.2c1-2.4 5.6-4.5 7.8 0 0 0 1.3 2.3 0 5.3l-2.3 5.3s-1.9 12.5-2.2 12.8c-.3.3.4 18.8.4 18.8l1.6.8 1.9-17.5 4.6-16.2s.3-7.9 5.8-6.5c0 0 2.6-.1 3.9 2.9 1.3 3-1.6 21.8-1.6 21.8l-.1 19.7 1.1 15.3 3.4-10.1s1.3-14.8 10.7-15.4c0 0 2.8-.3 3.2 1.7.4 2-1.8 5.8-1.8 9.6l.2 7.3c0 .7 0 1.4-.2 2.1-.9 3-3.4 11.6-4.5 16.3-1.3 5.8-12.1 23.1-12.1 23.1l-14.4 15.4c-2.5 2.7-6.9 14.1-10.7 24.8" stroke="#344054" stroke-miterlimit="10"/>
    <path d="M169.3 289.5a6 6 0 0 1-1.4 5.7l1.4-5.7Z" fill="#fff"/>
    <path d="M169.3 289.5a6 6 0 0 1-1.4 5.7" stroke="#344054" stroke-miterlimit="10"/>
    <path d="M153.1 303.5c1.4-2.1 2.7-5 2.3-7.6-.7-4.9-3-10.6-2-15.4l1.9-9.3" fill="#fff"/>
    <path d="M153.1 303.5c1.4-2.1 2.7-5 2.3-7.6-.7-4.9-3-10.6-2-15.4l1.9-9.3M193 257.1c1.6-.4 3.4-.4 5 0l.1-1.4M179.9 250.9c1 .7 2.3.8 3.4.2 1-.6 1.7-1.7 1.7-2.9M216 285.6a6 6 0 0 0-4.6 6.3l2.5.7" stroke="#344054" stroke-miterlimit="10"/>
    <path d="M183.8 286.8v7.4-7.4Z" fill="#fff"/>
    <path d="M183.8 286.8v7.4" stroke="#344054" stroke-miterlimit="10"/>
    <path d="m185.7 289.1-.6 8.2v-1" fill="#fff"/>
    <path d="m185.7 289.1-.6 8.2v-1" stroke="#344054" stroke-miterlimit="10"/>
    <path d="M200.9 312.3c.7 3 .4 6.3-.9 9.1l.9-9.1Z" fill="#fff"/>
    <path d="M200.9 312.3c.7 3 .4 6.3-.9 9.1M175.6 297.9c-2.2 2.4-1.9 8.1-.3 11.3M191.7 301.8c.1 2.6-.9 5.2-2.7 7.3M159.7 299c-.4 2.4.2 4.9 1.5 7M150.4 306.5c-.1 1.9.4 3.8 1.5 5.3M163.1 260.4c1.1-.5 2.6-.3 3.5.6l1.2-1.6M173.4 267.7a4.1 4.1 0 0 1 5.3.9M189.4 272.7c1.8-.8 3.9-.8 5.7.1M153.8 281.1c1-1.8 3.2-2.9 5.2-2.6M147.1 290.7c0-1.3 1.1-2.5 2.4-2.7" stroke="#344054" stroke-miterlimit="10"/>
    <path d="M404.4 218.8a41.4 41.4 0 1 0 0-82.8 41.4 41.4 0 0 0 0 82.8Z" stroke="#344054" stroke-miterlimit="10" stroke-linecap="round" stroke-linejoin="round"/>
    <path opacity=".2" d="M451.4 178.5c-8.8 14.5-12 12.5-42.1 27-15.3 7.3-30.1-16.2-20.1-40.4.5-1.2 4.8-7.1 4.8-7.1 1.8-8 8.5-14.7 16.5-16.6 8-1.9 16.9 1.1 22.1 7.5a24 24 0 0 1 21.2-5.1 35.2 35.2 0 0 1 1.4 4.1l1.1 3.5c.7 2.2 1.3 4.5 1.8 6.8-3.3-.9-6.7-.9-9.8.6-2.2 1.1-4.1 2.9-6.4 3.7-2.3.9-5.5.4-6.4-1.9 1.1 4.6 6 3.2 10.6 4.2 7.2 1.3 9 7.6 5.3 13.7Z" fill="#232B37"/>
    <path d="M437.7 171.3s7.4-1 10.9-.5a7 7 0 0 1 4.3 2.4c.3.4.5.8.5 1.3l.4 5.8c0 .7-.2 1.3-.6 1.8-1.4 1.5-5.8 4.3-18.8 5.2-18.1 1.6 3.3-16 3.3-16Z" fill="#fff" stroke="#344054" stroke-miterlimit="10" stroke-linecap="round" stroke-linejoin="round"/>
    <path d="M432.3 156.3c2.1 2.6 6.1 8.5 6.1 17.6 0 6.9-8 30.5-28.5 33.4-21.7 3-39.1-15.5-35.4-37.9 2.6-15.4 40.4-34.7 57.8-13.1Z" fill="#fff" stroke="#344054" stroke-miterlimit="10" stroke-linecap="round" stroke-linejoin="round"/>
    <path d="M405.8 202.2a30.7 30.7 0 0 0 31.5-29.8 30.7 30.7 0 0 0-31.5-29.8 30.7 30.7 0 0 0-31.5 29.8 30.7 30.7 0 0 0 31.5 29.8Z" fill="#fff"/>
    <path d="M405.8 198.5c14.2 0 25.8-11 25.8-24.5a25.2 25.2 0 0 0-25.8-24.5c-14.2 0-25.8 11-25.8 24.5a25.2 25.2 0 0 0 25.8 24.5Z" fill="#344054"/>
    <path d="M437.3 172.4a30.7 30.7 0 0 0-31.5-29.8 30.7 30.7 0 0 0-31.5 29.8M429 192.6a28.7 28.7 0 0 0 8.3-20.2M383.8 193.7a32.2 32.2 0 0 0 22 8.5c5.3 0 10.2-1.2 14.6-3.4M379.2 188.4l1.3 1.8M374.4 172.4c0 4.5 1.1 8.9 3 12.7" stroke="#344054" stroke-miterlimit="10" stroke-linecap="round" stroke-linejoin="round"/>
    <path d="M452 180.6s-5.6-3.9-14.7-.4l14.7.4Z" fill="#fff"/>
    <path d="M452 180.6s-5.6-3.9-14.7-.4" stroke="#344054" stroke-miterlimit="10" stroke-linecap="round" stroke-linejoin="round"/>
    <path d="M447.2 183.3c-2.1.6-5.7 1.4-11.6 1.8l11.6-1.8Z" fill="#fff"/>
    <path d="M447.2 183.3c-2.1.6-5.7 1.4-11.6 1.8" stroke="#344054" stroke-miterlimit="10" stroke-linecap="round" stroke-linejoin="round"/>
    <path d="M450.1 182.1s-.3.3-1.4.7l1.4-.7Z" fill="#fff"/>
    <path d="M450.1 182.1s-.3.3-1.4.7" stroke="#344054" stroke-miterlimit="10" stroke-linecap="round" stroke-linejoin="round"/>
    <path d="m455.1 147.8-.4-1.1c-1.9-5.9-4.4-12.4-7.4-19.3l-1.7-3.9-.7.1c-2.9.3-5.9.7-8.2 2.3-2.4 1.7-3.8 5.1-2.2 7.5 1.5 2.4 5.4 3.8 4.8 6.6-6.4 3.6-14.2 3.2-21.4 5a34.3 34.3 0 0 0-16.4 9.7 5 5 0 0 0-1.1 2.5c-.2 2.7 2.2 4.5 4.8 5.7.5.2.5.9 0 1.1a17 17 0 0 0-4.7 2.7c-.8.7-.1 2.1 1 2h.4c1.1-.1 2.1.1 3 .4 1.5.5 2.6 1.6 2.7 2.9.2 2-2.1 3.9-5.1 4.1-.7.1-.2.9.9 1.1 2.1.4 4.3 0 6.4-.5 2.5-.6 5.2-1.5 6.6-3.6.6-.9.8-2.1.6-3.2-.2-1.5-1.2-2.8-2.7-2.9 4.6-.6 9.2-1.5 13.7-2.8l1.4-.4c1.3-.4 2.8-.9 3.9-1.7.7-.5 1.3-1.1 1.7-1.9 1-2-.4-5.2-2.6-4.8 6.5-2.5 13.3-4 19.8-6.3l2.9-1.3Z" fill="#fff"/>
    <path d="M409.5 51.4 74 52.9l5.1-7.6A13 13 0 0 1 90 39.4h303.6c4 0 7.7 1.8 10.2 4.9l5.7 7.1Z" fill="#fff" stroke="#344054" stroke-miterlimit="10" stroke-linecap="round" stroke-linejoin="round"/>
    <path d="M247.6 188.4h-18.4a34.2 34.2 0 0 1-34.2-34.2v-18.4a34.2 34.2 0 0 1 34.2-34.2h18.4a34.2 34.2 0 0 1 34.2 34.2v18.4a34.2 34.2 0 0 1-34.2 34.2Z" fill="#666" stroke="#344054" stroke-miterlimit="10" stroke-linecap="round" stroke-linejoin="round"/>
    <path d="M210.8 152.3v12.3a7 7 0 0 0 7 7h42.3a7 7 0 0 0 7-7l.3-12.4h-56.6v.1Z" fill="#666" stroke="#344054" stroke-miterlimit="10" stroke-linecap="round" stroke-linejoin="round"/>
    <path d="M365.5 156.5H118.3c-2.6 0-5-1.6-5.9-4L74.3 54.6c-1-2.6.9-5.3 3.6-5.3h328c2.7 0 4.6 2.8 3.6 5.3l-38.1 97.9c-.9 2.4-3.3 4-5.9 4Z" fill="#B3B3B3" stroke="#344054" stroke-miterlimit="10" stroke-linecap="round" stroke-linejoin="round"/>
    <path d="M367.4 147.9H115.9L81.3 55.4h320.5l-34.4 92.5ZM267.2 156.3h-56.1v3.8h56.1v-3.8Z" fill="#344054"/>
    <path d="M330.6 144H153c-1 0-1.9-.4-2.1-1l-25.3-80.2c-.3-.9.5-1.6 1.8-1.6h228.7c1.3 0 2 .7 1.8 1.6L332.7 143c-.2.5-1.1 1-2.1 1Z" fill="#FF5269"/>
    <path d="M330 142.1H153.7l-21.5-70.5h219.2L330 142.1Z" fill="#344054"/>
    <path d="M179 89.1h-33.4c-.8 0-1.4.4-1.2 1 .2.5.9 1 1.8 1h33.2c.8 0 1.4-.4 1.3-1-.1-.5-.9-1-1.7-1ZM180.1 95.2h-28.4c-.8 0-1.3.4-1.2 1 .1.5.9 1 1.7 1h28.2c.8 0 1.4-.4 1.3-1 0-.5-.8-1-1.6-1Z" fill="#fff"/>
    <path opacity=".5" d="M181.2 101.1H149c-.8 0-1.3.4-1.2.9.1.5.9.9 1.7.9h32c.8 0 1.4-.4 1.3-.9-.1-.5-.8-.9-1.6-.9Z" fill="#fff"/>
    <path d="M182.2 106.8h-18.9c-.8 0-1.3.4-1.2.9.1.5.8.9 1.6.9h18.8c.8 0 1.3-.4 1.2-.9 0-.5-.7-.9-1.5-.9ZM183.2 112.3h-31.1c-.8 0-1.3.4-1.1.9.1.5.9.9 1.6.9h30.9c.8 0 1.3-.4 1.2-.9 0-.5-.7-.9-1.5-.9ZM184.2 117.6h-25.1c-.8 0-1.3.4-1.1.8.1.5.8.8 1.6.8h25c.8 0 1.3-.4 1.2-.8-.2-.5-.8-.8-1.6-.8ZM185.2 122.7h-24.7c-.7 0-1.2.4-1.1.8.1.4.8.8 1.6.8h24.6c.7 0 1.3-.4 1.2-.8-.2-.4-.9-.8-1.6-.8ZM186.1 127.7h-27c-.7 0-1.2.4-1.1.8.1.4.8.8 1.5.8h26.8c.7 0 1.3-.3 1.2-.8 0-.5-.7-.8-1.4-.8Z" fill="#fff"/>
    <path opacity=".5" d="M186.9 132.5h-17.4c-.7 0-1.2.3-1.1.8.1.4.8.8 1.5.8h17.3c.7 0 1.2-.3 1.2-.8-.1-.5-.7-.8-1.5-.8ZM177.8 82.8h-24.9c-.8 0-1.4.5-1.3 1 .1.6.9 1 1.8 1h24.7c.8 0 1.4-.5 1.3-1 0-.5-.7-1-1.6-1Z" fill="#fff"/>
    <path d="M176.6 76.3H142c-.9 0-1.4.5-1.2 1.1.2.6 1 1.1 1.8 1.1H177c.8 0 1.5-.5 1.3-1.1 0-.7-.8-1.1-1.7-1.1ZM187.8 137.1h-28.7c-.7 0-1.2.3-1.1.7.1.4.8.7 1.5.7h28.6c.7 0 1.2-.3 1.1-.7-.1-.3-.7-.7-1.4-.7Z" fill="#fff"/>
    <path opacity=".5" d="M190.7 91.4h6.5l-.3-2.5h-6.6l.4 2.5ZM191.6 97.4h6.4l-.3-2.4h-6.4l.3 2.4ZM192.5 103.2h6.2l-.3-2.3h-6.3l.4 2.3ZM193.3 108.8h6.2l-.3-2.2H193l.3 2.2ZM194.1 114.2h6.1l-.3-2.2h-6.1l.3 2.2ZM194.9 119.4h6l-.3-2h-6l.3 2ZM195.7 124.5h5.8l-.2-2h-5.9l.3 2ZM196.4 129.4h5.8l-.3-1.9h-5.8l.3 1.9ZM197.1 134.2h5.7l-.2-1.9h-5.7l.2 1.9ZM189.8 85.1h6.6l-.4-2.5h-6.6l.4 2.5ZM188.8 78.6h6.7l-.3-2.6h-6.8l.4 2.6ZM197.8 138.8h5.6l-.2-1.9h-5.6l.2 1.9Z" fill="#fff"/>
    <path d="M231.9 128.4c0-.4.6-.8 1.3-.8H329c.7 0 1.2.4 1.1.8-.1.4-.8.8-1.5.8h-95.3c-.7 0-1.3-.3-1.4-.8ZM330 124.3h-53.1c-.7 0-1.3-.4-1.3-.8s.7-.8 1.4-.8h53.3c.7 0 1.2.4 1.1.8.1.4-.6.8-1.4.8Z" fill="#fff"/>
    <path opacity=".5" d="M264.4 124.3h-16.5c-.7 0-1.3-.4-1.3-.8s.6-.8 1.4-.8h16.6c.7 0 1.3.4 1.3.8-.2.4-.8.8-1.5.8Z" fill="#fff"/>
    <path d="M298.8 119.2H224c-.8 0-1.4-.4-1.4-.8 0-.5.6-.8 1.3-.8h75.2c.8 0 1.3.4 1.2.8 0 .5-.7.8-1.5.8Z" fill="#fff"/>
    <path opacity=".5" d="M208.3 117.6h5.3c.8 0 1.4.4 1.4.8 0 .5-.5.8-1.3.8h-5.3c-.8 0-1.4-.4-1.5-.8.1-.5.7-.8 1.4-.8Z" fill="#fff"/>
    <path d="M309.6 113.1c-.1.5-.8.9-1.6.9h-70.5c-.8 0-1.4-.4-1.4-.9s.6-.9 1.4-.9h70.9c.8.1 1.4.5 1.2.9ZM207.8 112.3h20c.8 0 1.4.4 1.4.9s-.6.9-1.3.9H208c-.8 0-1.4-.4-1.5-.9-.1-.5.5-.9 1.3-.9ZM207.2 106.8h76.9c.8 0 1.4.4 1.3.9-.1.5-.7.9-1.5.9h-76.5c-.8 0-1.5-.4-1.5-.9-.1-.5.5-.9 1.3-.9ZM257.1 102.9c-.8 0-1.4-.4-1.4-.9s.7-.9 1.5-.9h40.6c.8 0 1.4.4 1.3.9-.1.5-.8.9-1.6.9h-40.4ZM206.6 101.1h35.1c.8 0 1.4.4 1.4.9s-.6.9-1.4.9h-34.9c-.8 0-1.5-.4-1.5-.9-.1-.5.5-.9 1.3-.9ZM337.8 97.1h-96.7c-.8 0-1.5-.4-1.5-1 0-.5.6-1 1.5-1h97.3c.8 0 1.3.4 1.2 1-.2.6-1 1-1.8 1ZM339.6 91.1h-85.1c-.8 0-1.5-.4-1.5-1 0-.5.7-1 1.5-1h85.6c.8 0 1.4.4 1.2 1-.1.6-.9 1-1.7 1Z" fill="#fff"/>
    <path opacity=".5" d="M341.3 84.9h-17.8c-.8 0-1.4-.5-1.3-1 .1-.6.9-1 1.8-1h17.9c.8 0 1.4.5 1.2 1-.1.5-.9 1-1.8 1Z" fill="#fff"/>
    <path d="M311.1 84.9h-65.4c-.8 0-1.5-.5-1.5-1 0-.6.7-1 1.5-1h65.8c.8 0 1.4.5 1.3 1-.1.5-.9 1-1.7 1ZM209.9 132.5h60.4c.7 0 1.3.3 1.2.8 0 .4-.7.8-1.4.8H210c-.7 0-1.3-.3-1.4-.8.1-.5.6-.8 1.3-.8ZM210.4 137.1h92.8c.7 0 1.2.3 1.1.7-.1.4-.7.7-1.4.7h-92.4c-.7 0-1.3-.3-1.4-.7.1-.3.6-.7 1.3-.7ZM307.8 78.4h-47.3c-.8 0-1.5-.5-1.5-1.1 0-.6.7-1.1 1.6-1.1h47.5c.9 0 1.5.5 1.3 1.1 0 .6-.7 1.1-1.6 1.1Z" fill="#fff"/>
    <path opacity=".5" d="M247.1 78.4h-43c-.8 0-1.6-.5-1.7-1.1-.1-.6.6-1.1 1.4-1.1H247c.9 0 1.5.5 1.5 1.1.2.6-.5 1.1-1.4 1.1ZM283.8 132.5c.7 0 1.3.3 1.2.8-.1.4-.7.8-1.4.8h-4.7c-.7 0-1.3-.3-1.2-.8.1-.4.7-.8 1.4-.8h4.7ZM226.4 128.4c0 .4-.6.8-1.3.8h-6.4c-.7 0-1.3-.3-1.4-.8 0-.4.5-.8 1.3-.8h6.4c.8.1 1.4.4 1.4.8ZM303.2 107.7c-.1.5-.8.9-1.6.9h-7.4c-.8 0-1.3-.4-1.3-.9.1-.5.8-.9 1.6-.9h7.5c.7 0 1.3.4 1.2.9ZM326.4 112.3c.8 0 1.3.4 1.2.9-.1.5-.9.9-1.6.9h-5.9c-.8 0-1.3-.4-1.2-.9.1-.5.8-.9 1.6-.9h5.9ZM229.4 97.1c-.8 0-1.5-.4-1.5-1 0-.5.6-1 1.4-1h6.3c.8 0 1.5.4 1.5 1 0 .5-.6 1-1.4 1h-6.3Z" fill="#fff"/>
    <path d="M143.5 66.3c.5 1.6-.5 3-2.1 3a4.4 4.4 0 0 1-3.9-3c-.5-1.7.4-3 2.1-3 1.6 0 3.4 1.4 3.9 3ZM151.6 66.4c.4 1.6-.6 2.9-2.2 2.9a4.2 4.2 0 0 1-3.8-2.9c-.5-1.7.5-3 2.2-3 1.6 0 3.4 1.3 3.8 3ZM159.8 66.3c.4 1.6-.6 3-2.3 3a4 4 0 0 1-3.7-3c-.4-1.7.6-3 2.3-3a4 4 0 0 1 3.7 3Z" fill="#fff"/>
    <path opacity=".1" d="m81.3 55.4 26.9 72.1 32.5-72.1H81.3ZM126.7 147.9l54-92.5h56.4l-79.3 92.5h-31.1ZM261.5 55l-84.1 92.9h12.9l87.1-92.5-15.9-.4ZM278.1 147.9l92.3-92.5h13.1l-95.3 92.5h-10.1Z" fill="#fff"/>
    <path d="M426 266.1c0 4.1-.3 8.1-1 11.9-2.9 17.3-12 29.9-22.8 29.9-1 0-1.9-.1-2.9-.3-11.7-2.5-20.9-20.1-20.9-41.5 0-23.1 10.6-31.2 23.7-31.2 13.3 0 23.9 8.1 23.9 31.2Z" fill="#fff"/>
    <path d="M417.4 266.4c.9 12.4-1.2 24.8-4.8 36.7 8.9-7.3 13.1-18.9 16.8-29.8 2.7-8 5.4-16.1 4.9-24.5-.5-8.4-5-17.1-12.8-20a17.4 17.4 0 0 0-12.1.2c-6.6 2.6-3 4.8-.2 9.5a64.5 64.5 0 0 1 8.2 27.9Z" fill="#FF5269"/>
    <path opacity=".5" d="M417.4 266.4c.9 12.4-1.2 24.8-4.8 36.7 8.9-7.3 13.1-18.9 16.8-29.8 2.7-8 5.4-16.1 4.9-24.5-.5-8.4-5-17.1-12.8-20a17.4 17.4 0 0 0-12.1.2c-6.6 2.6-3 4.8-.2 9.5a64.5 64.5 0 0 1 8.2 27.9Z" fill="#fff"/>
    <path d="M426 266.1c0 4.1-.3 8.1-1 11.9-2.9 17.3-12 29.9-22.8 29.9-1 0-1.9-.1-2.9-.3-11.7-2.5-20.9-20.1-20.9-41.5 0-23.1 10.6-31.2 23.7-31.2 13.3 0 23.9 8.1 23.9 31.2Z" stroke="#344054" stroke-miterlimit="10"/>
    <path d="M415 287.4a41.3 41.3 0 0 1-7.8 14.6l7.8-14.6Z" fill="#fff"/>
    <path d="M415 287.4a41.3 41.3 0 0 1-7.8 14.6M415.8 284.4l-.4 1.7" stroke="#344054" stroke-miterlimit="10"/>
    <path d="M415.7 266.1c1.3 5.3 1.4 10.9.5 16.3l-.5-16.3Z" fill="#fff"/>
    <path d="M415.7 266.1c1.3 5.3 1.4 10.9.5 16.3M378.6 266.1s27-10.7 47.5 0" stroke="#344054" stroke-miterlimit="10"/>
    <path d="M402.3 234.9s2.7 10 3 26.3l-3-26.3Z" fill="#fff"/>
    <path d="M402.3 234.9s2.7 10 3 26.3" stroke="#344054" stroke-miterlimit="10"/>
    <path d="M406.1 247c.3 3.1-.2 5.8-1.2 5.9-1 .2-2.1-2.2-2.5-5.3-.3-3.1.2-5.8 1.2-5.9 1-.2 2.1 2.2 2.5 5.3Z" fill="#B3B3B3" stroke="#344054" stroke-miterlimit="10" stroke-linecap="round" stroke-linejoin="round"/>
    <g clip-path="url(#clip1_268_10902)">
      <path d="m34.9 199.2-8.7-98h96l-8.8 97.9L74.1 210" fill="#E44D26"/>
      <path d="M74.2 201.7v-92.5h39.2l-7.5 83.6" fill="#F16529"/>
      <path d="M44 121.2h30.2v12h-17l1 12.3h16v12h-27m.6 6h12l1 9.6 13.4 3.6v12.6l-24.7-7" fill="#fff"/>
      <path d="M104.2 121.2H74.1v12h29m-1 12.3H74v12h14.8l-1.4 15.6-13.4 3.6v12.5l24.6-6.8" fill="#fff"/>
    </g>
  </g>
  <defs>
    <clipPath id="clip0_268_10902">
      <path fill="#fff" d="M0 0h463v397H0z"/>
    </clipPath>
    <clipPath id="clip1_268_10902">
      <path fill="#fff" transform="translate(26 101)" d="M0 0h96.3v109H0z"/>
    </clipPath>
  </defs>
</svg>
